<svg xmlns="http://www.w3.org/2000/svg" viewBox="0 0 32 32"><path fill="#f1f1f1" d="M28 1c1.654 0 3 1.346 3 3v24c0 1.654-1.346 3-3 3H4c-1.654 0-3-1.346-3-3V4c0-1.654 1.346-3 3-3h24m0-1H4C1.8 0 0 1.8 0 4v24c0 2.2 1.8 4 4 4h24c2.2 0 4-1.8 4-4V4c0-2.2-1.8-4-4-4z"/><path fill="#f1f1f1" d="M25.965 11.664s-.198-1.496-.808-2.155c-.774-.863-1.64-.868-2.038-.917-2.846-.221-7.115-.221-7.115-.221h-.01s-4.269 0-7.115.221c-.396.049-1.262.054-2.036.917-.609.659-.808 2.155-.808 2.155s-.203 1.755-.203 3.511v1.645c0 1.757.203 3.511.203 3.511s.198 1.495.808 2.153c.774.863 1.79.837 2.242.928 1.627.166 6.915.217 6.915.217s4.274-.008 7.12-.226c.397-.051 1.264-.056 2.038-.919.609-.657.808-2.153.808-2.153s.203-1.755.203-3.511v-1.645c0-1.756-.204-3.511-.204-3.511zM13.46 19.815v-7.629L19.818 16l-6.358 3.815z"/></svg>