<svg xmlns="http://www.w3.org/2000/svg" viewBox="0 0 32 32"><path fill="#f1f1f1" d="M28 1c1.654 0 3 1.346 3 3v24c0 1.654-1.346 3-3 3H4c-1.654 0-3-1.346-3-3V4c0-1.654 1.346-3 3-3h24m0-1H4C1.8 0 0 1.8 0 4v24c0 2.2 1.8 4 4 4h24c2.2 0 4-1.8 4-4V4c0-2.2-1.8-4-4-4z"/><path fill="#f1f1f1" d="M15.235 16.531c-.486-.45-1.026-1.081-1.26-1.639-.036-.072-.108-.252 0-.396.216-.288.252-.306.486-.576.162-.198.288-.378.234-.54l-.81-2.107c-.072-.144-.288-.162-.54-.18-.216 0-.45 0-.612.036-.36.126-1.098 1.099-1.188 1.801-.198 1.531 1.188 3.566 2.574 4.827 1.386 1.279 3.529 2.486 5.041 2.143.702-.162 1.603-.972 1.674-1.351.036-.162.018-.396-.018-.612-.018-.252-.072-.432-.216-.504l-1.836-.847c-.162-.09-.324-.018-.486.181-.198.27-.288.378-.522.666-.126.162-.216.27-.36.288-.162.036-.378-.054-.414-.054-.577-.199-1.243-.685-1.747-1.136zm-6.049 6.466l1.044-2.648a7.612 7.612 0 0 1-1.854-4.989c0-4.214 3.42-7.619 7.633-7.619a7.608 7.608 0 0 1 7.615 7.619c0 4.215-3.402 7.637-7.615 7.637a7.488 7.488 0 0 1-4.501-1.477l-2.322 1.477zm-1.278-2.593l-1.44 5.764 5.148-2.342a9.493 9.493 0 0 0 4.393 1.081c5.256 0 9.523-4.269 9.523-9.546 0-5.259-4.267-9.528-9.523-9.528-5.275 0-9.541 4.269-9.541 9.528 0 1.854.54 3.584 1.44 5.043z"/></svg>